<?xml version="1.0" encoding="iso-8859-1"?>
<!-- Generator: Adobe Illustrator 21.0.0, SVG Export Plug-In . SVG Version: 6.00 Build 0)  -->
<svg xmlns="http://www.w3.org/2000/svg" xmlns:xlink="http://www.w3.org/1999/xlink" version="1.1" x="0px" y="0px" viewBox="0 0 50 50" style="enable-background:new 0 0 50 50;" xml:space="preserve" width="16px" height="16px">
<g>
</g>
<g>
</g>
<g>
</g>
<g>
	<path style="fill:none;stroke:#000000;stroke-width:2;stroke-linecap:round;stroke-linejoin:round;stroke-miterlimit:10;" d="   M28.552,23.913c0-3.626,5.89-3.944,5.89-11.022C34.443,7.763,31,6,30,6h4l3-3H26.106C14,3,13,11.281,13,14c0,4.048,2.633,9,9,9   c0.579,0,1.345,0.075,2,0c0,0-0.667,1.204-0.667,2.137C23.333,27.081,24,28,25,29c-6.965-0.068-15.344,3.033-15.344,9.756   c0,2.46,2.114,8.244,12.04,8.244c11.321,0,14.749-6.992,14.749-10.91C36.443,28.606,28.552,27.369,28.552,23.913z"/>
	<path d="M28.552,23.913c0-3.626,5.89-3.944,5.89-11.022C34.443,7.763,31,6,30,6h4l3-3H26.106C14,3,13,11.281,13,14   c0,4.048,2.633,9,9,9c0.579,0,1.345,0.075,2,0c0,0-0.667,1.204-0.667,2.137C23.333,27.081,24,28,25,29   c-6.965-0.068-15.344,3.033-15.344,9.756c0,2.46,2.114,8.244,12.04,8.244c11.321,0,14.749-6.992,14.749-10.91   C36.443,28.606,28.552,27.369,28.552,23.913z M24.406,20c-3.364,0-6.204-4.228-6.204-8.75c0-1.343,0.647-5.25,4.365-5.25   c4.79,0,5.958,7.105,5.958,9.038C28.525,15.484,28.842,20,24.406,20z M25.098,42.818C21.12,43.616,15,42,15.029,37.035   c0.012-2.119,1.215-6.051,8.101-7.037c0,0,1.722-0.288,2.951,0C27.838,31.314,31,33.397,31,36.901   C30.998,38.49,30.016,41.832,25.098,42.818z"/>
</g>
</svg>
