<?xml version="1.0" encoding="UTF-8"?>
<svg xmlns="http://www.w3.org/2000/svg" xmlns:xlink="http://www.w3.org/1999/xlink" viewBox="0 0 50 50" version="1.1" fill="#7a7a7a" width="19px" height="19px">
<g id="surface1" fill="#7a7a7a">
<path style=" " d="M 26.105469 2 C 19.824219 2 16.15625 4.222656 14.207031 6.890625 C 12.257813 9.558594 12 12.519531 12 14 C 12 16.242188 12.714844 18.703125 14.34375 20.65625 C 15.972656 22.613281 18.558594 24 22 24 C 22.136719 24 22.410156 23.992188 22.589844 24 C 22.476563 24.359375 22.332031 24.6875 22.332031 25.136719 C 22.332031 26.425781 22.691406 27.371094 23.171875 28.1875 C 20.070313 28.382813 16.882813 29.019531 14.238281 30.453125 C 11.074219 32.167969 8.65625 34.980469 8.65625 38.753906 C 8.65625 40.273438 9.273438 42.550781 11.25 44.511719 C 13.226563 46.472656 16.539063 48 21.695313 48 C 33.429688 48 37.445313 40.589844 37.445313 36.089844 C 37.445313 31.996094 35.191406 29.46875 33.144531 27.730469 C 32.121094 26.859375 31.140625 26.144531 30.484375 25.503906 C 29.824219 24.863281 29.550781 24.394531 29.550781 23.910156 C 29.550781 23.277344 29.769531 22.851563 30.234375 22.300781 C 30.699219 21.753906 31.417969 21.160156 32.191406 20.417969 C 33.738281 18.929688 35.441406 16.707031 35.441406 12.890625 C 35.441406 10.1875 34.527344 8.261719 33.425781 7 L 34 7 C 34.265625 7 34.519531 6.894531 34.707031 6.707031 L 37.707031 3.707031 C 37.992188 3.421875 38.078125 2.992188 37.921875 2.617188 C 37.769531 2.242188 37.40625 2 37 2 Z M 22.566406 6 C 27.355469 6 28.527344 13.105469 28.527344 15.035156 C 28.527344 15.484375 28.84375 20 24.40625 20 C 21.042969 20 18.203125 15.773438 18.203125 11.25 C 18.203125 9.90625 18.847656 6 22.566406 6 Z M 25.425781 29.902344 C 25.652344 29.921875 25.871094 29.949219 26.078125 30 C 27.835938 31.3125 31 33.394531 31 36.902344 C 30.996094 38.488281 30.015625 41.832031 25.097656 42.816406 C 21.121094 43.617188 15 42 15.03125 37.035156 C 15.039063 34.992188 16.175781 31.269531 22.433594 30.125 C 22.4375 30.121094 22.441406 30.121094 22.441406 30.121094 C 23.300781 30.03125 24.15625 29.992188 24.988281 30 C 25.140625 30 25.292969 29.96875 25.425781 29.902344 Z " fill="#7a7a7a"/>
</g>
</svg>
