<?xml version="1.0" encoding="utf-8"?>
<!-- Generator: Adobe Illustrator 21.0.0, SVG Export Plug-In . SVG Version: 6.00 Build 0)  -->
<svg version="1.1" xmlns="http://www.w3.org/2000/svg" xmlns:xlink="http://www.w3.org/1999/xlink" x="0px" y="0px" width="113.3px"
	 height="20px" viewBox="0 0 113.3 20" style="enable-background:new 0 0 113.3 20;" xml:space="preserve">
<style type="text/css">
	.st0{display:none;}
	.st1{display:inline;}
	.st2{stroke:#000000;stroke-width:0.25;stroke-miterlimit:10;}
</style>
<g id="Слой_1">
	<g class="st0">
		<path class="st1" d="M13,5.2V15h-1.5L6.1,8.4V15H4.3V5.2h1.5l5.4,6.6V5.2H13z"/>
		<path class="st1" d="M22.6,11.9h-5.9c0.2,1.1,1.1,1.8,2.4,1.8c0.8,0,1.5-0.3,2-0.8l0.9,1.1c-0.7,0.8-1.7,1.2-3,1.2
			c-2.5,0-4.1-1.6-4.1-3.8c0-2.2,1.6-3.8,3.9-3.8c2.2,0,3.8,1.5,3.8,3.9C22.6,11.5,22.6,11.7,22.6,11.9z M16.7,10.7H21
			c-0.1-1.1-1-1.8-2.1-1.8C17.7,8.9,16.9,9.6,16.7,10.7z"/>
		<path class="st1" d="M28.9,14.6c-0.4,0.3-1.1,0.5-1.7,0.5c-1.6,0-2.6-0.9-2.6-2.5V9h-1.2V7.6h1.2V5.9h1.8v1.7h2V9h-2v3.6
			c0,0.7,0.4,1.1,1,1.1c0.4,0,0.7-0.1,1-0.3L28.9,14.6z"/>
		<path class="st1" d="M30,14c0-0.7,0.5-1.2,1.1-1.2c0.6,0,1.1,0.5,1.1,1.2c0,0.7-0.5,1.2-1.1,1.2C30.5,15.1,30,14.6,30,14z"/>
		<path class="st1" d="M45.3,7.6L42.5,15h-1.7l-1.9-5.2L37,15h-1.7l-2.7-7.5h1.7l2,5.5l2.1-5.5h1.5l2,5.5l2-5.5H45.3z"/>
		<path class="st1" d="M45.8,11.3c0-2.2,1.7-3.8,4-3.8c2.3,0,4,1.6,4,3.8s-1.7,3.8-4,3.8C47.4,15.1,45.8,13.5,45.8,11.3z M52,11.3
			C52,9.9,51,9,49.7,9c-1.3,0-2.2,0.9-2.2,2.3s1,2.3,2.2,2.3C51,13.6,52,12.7,52,11.3z"/>
		<path class="st1" d="M59.8,7.5v1.7c-0.2,0-0.3,0-0.4,0c-1.3,0-2.2,0.8-2.2,2.3V15h-1.8V7.6h1.7v1.1C57.7,7.9,58.6,7.5,59.8,7.5z"
			/>
		<path class="st1" d="M64.5,11.8l-1.3,1.2v2h-1.8V4.6h1.8v6.3l3.6-3.4h2.1l-3.1,3.1l3.4,4.3h-2.1L64.5,11.8z"/>
	</g>
	<g class="st0">
		<path class="st1" d="M3.5,15.7c0,0.1-0.1,0.2-0.2,0.2H2.7c-0.1,0-0.2-0.1-0.2-0.2V4.2C2.6,4.1,2.6,4,2.7,4h0.4
			c0.1,0,0.2,0.1,0.3,0.2L7,13c0.1,0.2,0.1,0.4,0.2,0.5h0c0-0.2-0.1-0.4-0.1-0.5V4.2C7.1,4.1,7.2,4,7.3,4h0.6C8,4,8,4.1,8,4.2v11.5
			c0,0.1-0.1,0.2-0.2,0.2H7.4c-0.1,0-0.2-0.1-0.3-0.2L3.6,6.9C3.5,6.8,3.5,6.6,3.5,6.4h0c0,0.2,0.1,0.4,0.1,0.5V15.7z"/>
		<path class="st1" d="M12,11.7v2.4c0,0.6,0.4,1,1,1h1.1c0.6,0,1-0.4,1-1v-0.6c0-0.1,0.1-0.2,0.2-0.2h0.5c0.1,0,0.2,0.1,0.2,0.2V14
			c0,1.2-0.8,1.9-1.9,1.9H13c-1.2,0-1.9-0.8-1.9-1.9V8.4c0-1.2,0.8-1.9,1.9-1.9h1.1c1.2,0,1.9,0.8,1.9,1.9v3.1
			c0,0.1-0.1,0.2-0.2,0.2H12z M13,7.4c-0.6,0-1,0.4-1,1v2.4h3.1V8.4c0-0.6-0.4-1-1-1H13z"/>
		<path class="st1" d="M18,6.8c0-0.1,0.1-0.2,0.2-0.2h1.1V5.1c0-0.1,0.1-0.2,0.2-0.2H20c0.1,0,0.2,0.1,0.2,0.2v1.5h1.5
			c0.1,0,0.2,0.1,0.2,0.2v0.5c0,0.1-0.1,0.2-0.2,0.2h-1.5v6.7c0,0.6,0.4,1,1,1h0.5c0.1,0,0.2,0.1,0.2,0.2v0.5c0,0.1-0.1,0.2-0.2,0.2
			h-0.5c-1.2,0-1.9-0.8-1.9-1.9V7.4h-1.1c-0.1,0-0.2-0.1-0.2-0.2V6.8z"/>
		<path class="st1" d="M23.9,14.9c0-0.2,0.1-0.3,0.3-0.3h0.6c0.2,0,0.3,0.1,0.3,0.3v0.7c0,0.2-0.1,0.3-0.3,0.3h-0.6
			c-0.2,0-0.3-0.1-0.3-0.3V14.9z"/>
		<path class="st1" d="M29.4,15.7c0,0.1-0.1,0.2-0.2,0.2h-0.5c-0.1,0-0.2-0.1-0.3-0.2l-1.9-9c0-0.1,0-0.2,0.2-0.2h0.5
			c0.1,0,0.2,0.1,0.2,0.2l1.4,7.2c0,0.2,0.1,0.4,0.1,0.6h0c0-0.2,0-0.4,0-0.6l1.4-7.2c0-0.1,0.1-0.2,0.2-0.2h0.5
			c0.1,0,0.2,0.1,0.2,0.2l1.4,7.2c0,0.2,0,0.4,0,0.6h0c0-0.2,0-0.4,0.1-0.6l1.4-7.2c0-0.1,0.1-0.2,0.3-0.2H35c0.1,0,0.2,0.1,0.2,0.2
			l-1.9,8.9c0,0.1-0.1,0.2-0.2,0.2h-0.5c-0.1,0-0.2-0.1-0.2-0.2l-1.4-6.9c0-0.2,0-0.4,0-0.6h0c0,0.2,0,0.4-0.1,0.6L29.4,15.7z"/>
		<path class="st1" d="M37.1,8.4c0-1.2,0.8-1.9,1.9-1.9h1.2c1.2,0,1.9,0.8,1.9,1.9V14c0,1.2-0.8,1.9-1.9,1.9H39
			c-1.2,0-1.9-0.8-1.9-1.9V8.4z M38,14.1c0,0.6,0.4,1,1,1h1.2c0.6,0,1-0.4,1-1V8.4c0-0.6-0.4-1-1-1H39c-0.6,0-1,0.4-1,1V14.1z"/>
		<path class="st1" d="M45.9,6.6c0.1,0,0.2,0.1,0.2,0.2v0.6c0.4-0.3,1.3-0.9,2.1-0.9c0.1,0,0.2,0.1,0.2,0.2v0.6
			c0,0.1-0.1,0.2-0.2,0.2c-0.7,0-1.7,0.7-2.1,1.1v7.3c0,0.1-0.1,0.2-0.2,0.2h-0.5c-0.1,0-0.2-0.1-0.2-0.2V6.8c0-0.1,0.1-0.2,0.2-0.2
			H45.9z"/>
		<path class="st1" d="M50.7,4.2c0-0.1,0.1-0.2,0.2-0.2h0.5c0.1,0,0.2,0.1,0.2,0.2v11.5c0,0.1-0.1,0.2-0.2,0.2h-0.5
			c-0.1,0-0.2-0.1-0.2-0.2V4.2z M52.7,11.1l2.7,4.6c0.1,0.1,0,0.2-0.1,0.2h-0.6c-0.1,0-0.2-0.1-0.3-0.2l-2.7-4.6l2.5-4.4
			c0.1-0.1,0.2-0.2,0.3-0.2h0.6c0.1,0,0.2,0.1,0.1,0.2L52.7,11.1z"/>
	</g>
	<g class="st0">
		<path class="st1" d="M0.7,3.3h2v2h2v2h-2v8.2h-2V3.3z M4.8,7.4h2v2h-2V7.4z M6.8,9.4h2V3.3h2v12.2h-2v-4.1h-2V9.4z"/>
		<path class="st1" d="M13.1,3.3h10.2v2h-8.2v2h6.1v2h-6.1v4.1h8.2v2H13.1V3.3z"/>
		<path class="st1" d="M25.5,3.3h10.2v2h-4.1v10.2h-2V5.4h-4.1V3.3z"/>
		<path class="st1" d="M37.8,15.6h-2v-2h2V15.6z"/>
		<path class="st1" d="M39.4,3.3h2v10.2h-2V3.3z M41.4,13.5h2v2h-2V13.5z M43.5,9.4h2v4.1h-2V9.4z M45.5,13.5h2v2h-2V13.5z
			 M47.5,3.3h2v10.2h-2V3.3z"/>
		<path class="st1" d="M51.8,5.4h2v8.2h-2V5.4z M53.8,3.3h6.1v2h-6.1V3.3z M53.8,13.5h6.1v2h-6.1V13.5z M59.9,5.4h2v8.2h-2V5.4z"/>
		<path class="st1" d="M64.1,3.3h8.2v2h-6.1v6.1h6.1v2h-6.1v2h-2V3.3z M72.3,5.4h2v6.1h-2V5.4z M72.3,13.5h2v2h-2V13.5z"/>
		<path class="st1" d="M82.6,7.4v2h-4.1v6.1h-2V3.3h2v4.1H82.6z M84.7,7.4h-2v-2h2V7.4z M82.6,11.5v-2h2v2H82.6z M86.7,5.4h-2v-2h2
			V5.4z M84.7,15.6v-4.1h2v4.1H84.7z"/>
	</g>
	<g class="st0">
		<path class="st1" d="M4.8,7.7H4.7v7.5H3.3V5.5h2L8.2,13h0.1V5.5h1.4v9.8h-2L4.8,7.7z"/>
		<path class="st1" d="M11.7,11.6c0-2.3,1.3-3.8,3.4-3.8c2,0,3.3,1.5,3.3,3.6V12h-5.2v0.2c0,1.1,0.8,1.9,2,1.9c0.9,0,1.6-0.4,2-1.1
			l1,0.8c-0.5,0.8-1.5,1.5-3,1.5C13,15.4,11.7,13.9,11.7,11.6z M13.2,10.9L13.2,10.9l3.6,0.1v-0.1c0-1.1-0.7-1.9-1.8-1.9
			C14,9,13.2,9.8,13.2,10.9z"/>
		<path class="st1" d="M24,15.2c-1.3,0-1.8-0.8-1.8-1.8V9.2h-2.2V8h1.6c0.5,0,0.7-0.2,0.7-0.7V5.5h1.4V8h3.1v1.2h-3.1V14h3.1v1.2H24
			z"/>
		<path class="st1" d="M30.2,14.6v-0.3c0-0.4,0.3-0.8,1-0.8c0.7,0,1,0.3,1,0.8v0.3c0,0.4-0.3,0.8-1,0.8C30.5,15.4,30.2,15,30.2,14.6
			z"/>
		<path class="st1" d="M34.8,8h1.3l0.7,6.1H37L38,8h1.5l1.1,6.1h0.1L41.4,8h1.2l-1,7.2h-1.9l-1-5.6h-0.1l-1,5.6h-1.9L34.8,8z"/>
		<path class="st1" d="M43.8,11.6c0-2.3,1.3-3.8,3.4-3.8s3.4,1.5,3.4,3.8c0,2.3-1.3,3.8-3.4,3.8S43.8,13.9,43.8,11.6z M49.1,12.2
			v-1.1c0-1.3-0.7-2-1.8-2s-1.8,0.7-1.8,2v1.1c0,1.3,0.7,2,1.8,2S49.1,13.5,49.1,12.2z"/>
		<path class="st1" d="M52.6,14h1.9V9.2h-1.9V8h3.4v1.9h0.1c0.3-1,0.9-1.9,2.4-1.9h0.9v1.5H58c-1.2,0-1.9,0.8-1.9,1.8V14h2.6v1.2
			h-6.1V14z"/>
		<path class="st1" d="M61.3,4.9h1.5v6.3h0.1l1.1-1.2l2-2h1.8L65,10.9l3.2,4.4h-1.8l-2.5-3.5l-1,0.9v2.6h-1.5V4.9z"/>
	</g>
	<g>
		<path d="M13.9,3.3v14h-1.2L4,7.4v9.9H1.7v-14h1.2l8.7,9.9V3.3H13.9z"/>
		<path d="M27.7,3.3v2.2h-7.2v3.1h5.4v2.2h-5.4v4.4h7.2v2.2h-9.6v-14L27.7,3.3z"/>
		<path d="M42.1,3.3v2.2h-4.9v11.8h-2.3V5.5H30V3.3L42.1,3.3z"/>
		<path d="M46.3,16.1c0,0.7-0.5,1.2-1.2,1.2c-0.7,0-1.2-0.5-1.2-1.2c0-0.7,0.5-1.3,1.3-1.3C45.7,14.8,46.3,15.4,46.3,16.1L46.3,16.1
			z"/>
		<path d="M66.4,3.3l-3.7,14h-2.4L57.5,6.6l-2.9,10.7h-2.4l-3.7-14H51l2.7,10.1l2.7-10.1h2.3l2.7,10.1L64,3.3L66.4,3.3z"/>
		<path d="M68.7,10.3c0-4,3.2-7,7.1-7c4.2,0,7.1,3.3,7.1,7c0,4.1-3.3,7-7.1,7C71.7,17.3,68.7,14.1,68.7,10.3L68.7,10.3z M71.2,10.3
			c0,2.6,1.9,4.9,4.7,4.9c2.8,0,4.7-2.2,4.7-4.9c0-2.8-2-4.9-4.7-4.9C73.1,5.4,71.2,7.6,71.2,10.3L71.2,10.3z"/>
		<path d="M95.1,17.3l-3.5-5.9h-3.1v5.9h-2.3v-14h6.7c2.3,0,4.1,1.6,4.1,4.1c0,1.8-1,3.2-2.8,3.8l3.6,6.1L95.1,17.3z M88.6,9.3h4.1
			c1,0,2.1-0.7,2.1-1.9c0-1.1-1-1.9-2.1-1.9h-4.1V9.3z"/>
		<path d="M111.1,3.3l-4.2,4.4l5.6,9.6H110l-4.6-7.9l-2,2.1v5.8H101v-14h2.3v5.2l5-5.2H111.1z"/>
	</g>
	<g class="st0">
		<path class="st1" d="M12.6,4v12.1h-1v-2.8l-4-4v6.8h-1V4h1v3.8l4,4V4H12.6z"/>
		<path class="st1" d="M15.3,5v5h4v1h-4v4h5v1h-6V4h6v1H15.3z"/>
		<path class="st1" d="M28.1,5h-2.5v11.1h-1V5h-2.5V4h6V5z"/>
		<path class="st1" d="M29.9,16.1v-1.3h1v1.3H29.9z"/>
		<path class="st1" d="M36.6,16.1c-0.3,0-0.7-0.1-1-0.3c-0.3,0.2-0.7,0.3-1,0.3c-0.3,0-0.5-0.1-0.8-0.2c-0.2-0.1-0.5-0.2-0.6-0.4
			c-0.2-0.2-0.3-0.4-0.4-0.6c-0.1-0.2-0.2-0.5-0.2-0.8V4h1v10.1c0,0.3,0.1,0.5,0.3,0.7c0.2,0.2,0.4,0.3,0.7,0.3c0.2,0,0.4,0,0.5-0.1
			V9.1h1V15c0.1,0.1,0.3,0.1,0.5,0.1c0.3,0,0.5-0.1,0.7-0.3c0.2-0.2,0.3-0.4,0.3-0.7V4h1v10.1c0,0.3-0.1,0.5-0.2,0.8
			c-0.1,0.2-0.3,0.5-0.4,0.6c-0.2,0.2-0.4,0.3-0.6,0.4C37.2,16.1,36.9,16.1,36.6,16.1z"/>
		<path class="st1" d="M44.4,4c0.3,0,0.5,0.1,0.8,0.2c0.2,0.1,0.5,0.3,0.6,0.4C46,4.8,46.1,5,46.3,5.3c0.1,0.2,0.2,0.5,0.2,0.8v8.1
			c0,0.3-0.1,0.5-0.2,0.8c-0.1,0.2-0.3,0.5-0.4,0.6c-0.2,0.2-0.4,0.3-0.6,0.4c-0.2,0.1-0.5,0.2-0.8,0.2h-2c-0.3,0-0.5-0.1-0.8-0.2
			c-0.2-0.1-0.5-0.3-0.6-0.4c-0.2-0.2-0.3-0.4-0.4-0.6c-0.1-0.2-0.2-0.5-0.2-0.8V6.1c0-0.3,0.1-0.5,0.2-0.8s0.3-0.5,0.4-0.6
			c0.2-0.2,0.4-0.3,0.6-0.4C41.8,4.1,42.1,4,42.4,4H44.4z M45.4,6.1c0-0.3-0.1-0.5-0.3-0.7C44.9,5.1,44.7,5,44.4,5h-2
			c-0.3,0-0.5,0.1-0.7,0.3c-0.2,0.2-0.3,0.4-0.3,0.7v8.1c0,0.3,0.1,0.5,0.3,0.7c0.2,0.2,0.4,0.3,0.7,0.3h2c0.3,0,0.5-0.1,0.7-0.3
			c0.2-0.2,0.3-0.4,0.3-0.7V6.1z"/>
		<path class="st1" d="M54.2,9.1c0,0.3-0.1,0.6-0.2,0.8c-0.1,0.3-0.3,0.5-0.5,0.7c0.2,0.2,0.4,0.4,0.5,0.7c0.1,0.3,0.2,0.5,0.2,0.8
			v4h-1v-2.3c0-0.2,0-0.5,0-0.8s0-0.6,0-0.9s-0.1-0.5-0.3-0.8s-0.4-0.3-0.7-0.3h-3v5h-1V4h4c0.3,0,0.5,0.1,0.8,0.2
			c0.2,0.1,0.5,0.3,0.6,0.4C53.8,4.8,53.9,5,54,5.3c0.1,0.2,0.2,0.5,0.2,0.8V9.1z M52.2,10.1c0.3,0,0.5-0.1,0.7-0.3
			c0.2-0.2,0.3-0.4,0.3-0.7v-3c0-0.3-0.1-0.5-0.3-0.7C52.7,5.1,52.4,5,52.2,5h-3v5H52.2z"/>
		<path class="st1" d="M61.6,4v5c0,0.3-0.1,0.6-0.2,0.8c-0.1,0.3-0.3,0.5-0.5,0.7c0.2,0.2,0.4,0.4,0.5,0.7c0.1,0.3,0.2,0.5,0.2,0.8
			v4h-1v-2.3c0-0.2,0-0.5,0-0.8s0-0.6,0-0.9s-0.1-0.5-0.3-0.8s-0.4-0.3-0.7-0.3h-3v5h-1V4h1v6h3c0.3,0,0.6-0.1,0.7-0.3
			c0.1-0.2,0.2-0.5,0.3-0.7c0-0.3,0.1-0.6,0-0.9c0-0.3,0-0.6,0-0.8V4H61.6z"/>
	</g>
</g>
<g id="Слой_4" class="st0">
	<g class="st1">
		<path d="M12.6,8.9V3.6h1.5v12.6h-1.5v-5.4L7.3,5.3v10.8H5.8V3.6h1.6L12.6,8.9z"/>
		<path d="M20.2,10.9h2.3v-2H19V15h3.5v-1.6H24v1.6c0,0.8-0.5,1.2-1.3,1.2h-3.7c-0.9,0-1.3-0.4-1.3-1.2V8.9c0-0.8,0.5-1.2,1.3-1.2
			h3.7c0.9,0,1.3,0.4,1.3,1.2v3.2h-3.7V10.9z"/>
		<path d="M26.9,5.3h1.5v2.4H32v1.2h-3.7V15H32v1.2h-3.8c-0.9,0-1.3-0.4-1.3-1.2V5.3z"/>
		<path d="M34.2,16.1v-1.9h1.9v1.9H34.2z"/>
		<path d="M48,15V7.7h1.5v8.4h-9.3c-0.9,0-1.3-0.4-1.3-1.2V7.7h1.5V15h3.1V7.7h1.5V15H48z"/>
		<path d="M52.6,8.9c0-0.8,0.5-1.2,1.3-1.2H58c0.9,0,1.3,0.4,1.3,1.2v6.1c0,0.8-0.5,1.2-1.3,1.2h-2.8V15h2.6V8.9h-3.8v7.3h-0.2
			c-0.9,0-1.3-0.4-1.3-1.2V8.9z"/>
		<path d="M67.6,7.7v1.2H64v7.3h-1.5V8.9c0-0.8,0.5-1.2,1.3-1.2H67.6z"/>
		<path d="M74.9,16.1l-2.2-4.5h-1.5v4.5h-1.5V3.3h1.5v7.2h1.5l1.4-2.8h1.5L74,10.9l2.5,5.2H74.9z"/>
	</g>
</g>
<g id="Слой_3" class="st0">
	<g class="st1">
		<path d="M10.2,16.1L4.4,6.3v9.8H3.2V4h1.2l5.8,9.8V4h1.2v12.1H10.2z"/>
		<path d="M17.5,7.8c0.6,0,1.1,0.1,1.6,0.3C19.6,8.3,20,8.6,20.4,9c0.4,0.4,0.7,0.8,0.9,1.3c0.2,0.5,0.3,1,0.3,1.6
			c0,0.2,0,0.4-0.1,0.6h-6.9c0.1,0.4,0.2,0.7,0.3,1c0.2,0.3,0.4,0.5,0.6,0.8c0.3,0.2,0.5,0.4,0.8,0.5c0.3,0.1,0.6,0.2,1,0.2
			c0.4,0,0.8-0.1,1.1-0.2c0.4-0.2,0.7-0.4,1-0.6l0.9,0.9c-0.4,0.4-0.8,0.7-1.3,0.9s-1,0.3-1.6,0.3s-1.1-0.1-1.6-0.3s-1-0.5-1.3-0.9
			s-0.7-0.8-0.9-1.3c-0.2-0.5-0.3-1.1-0.3-1.6c0-0.6,0.1-1.1,0.3-1.6c0.2-0.5,0.5-1,0.9-1.3c0.4-0.4,0.8-0.7,1.3-0.9
			C16.3,7.9,16.9,7.8,17.5,7.8z M17.5,9c-0.3,0-0.7,0.1-1,0.2s-0.6,0.3-0.9,0.5s-0.5,0.5-0.6,0.8c-0.2,0.3-0.3,0.6-0.3,0.9h5.7
			c-0.1-0.3-0.2-0.6-0.3-0.9c-0.2-0.3-0.4-0.5-0.6-0.8s-0.5-0.4-0.9-0.5S17.8,9,17.5,9z"/>
		<path d="M26.7,12c0,0.4,0.1,0.8,0.2,1.1c0.2,0.4,0.4,0.7,0.6,0.9c0.3,0.3,0.6,0.5,0.9,0.6c0.4,0.2,0.8,0.2,1.2,0.3v1.2
			c-0.6,0-1.1-0.1-1.6-0.3s-1-0.5-1.3-0.9s-0.7-0.8-0.9-1.3c-0.2-0.5-0.3-1.1-0.3-1.6V8.6h-2V7.4h2V4h1.2v3.4h3v1.2h-3V12z"/>
		<path d="M31.5,15.4c0-0.2,0.1-0.3,0.2-0.5c0.1-0.1,0.3-0.2,0.5-0.2c0.2,0,0.3,0.1,0.5,0.2s0.2,0.3,0.2,0.5c0,0.2-0.1,0.4-0.2,0.5
			c-0.1,0.1-0.3,0.2-0.5,0.2c-0.2,0-0.4-0.1-0.5-0.2C31.5,15.8,31.5,15.6,31.5,15.4z"/>
		<path d="M37.8,16.1l-3.1-8.4h1.2l2.5,6.7l2.5-6.7h1.2l2.5,6.7L47,7.8h1.2l-3.1,8.4H44l-2.5-6.7L39,16.1H37.8z"/>
		<path d="M53.2,7.8c0.6,0,1.1,0.1,1.6,0.3c0.5,0.2,1,0.5,1.3,0.9c0.4,0.4,0.7,0.8,0.9,1.3c0.2,0.5,0.3,1.1,0.3,1.6
			c0,0.6-0.1,1.1-0.3,1.6c-0.2,0.5-0.5,1-0.9,1.3s-0.8,0.7-1.3,0.9s-1.1,0.3-1.6,0.3s-1.1-0.1-1.6-0.3s-1-0.5-1.3-0.9
			s-0.7-0.8-0.9-1.3C49.1,13.1,49,12.5,49,12c0-0.6,0.1-1.1,0.3-1.6c0.2-0.5,0.5-1,0.9-1.3c0.4-0.4,0.8-0.7,1.3-0.9
			C52.1,7.9,52.6,7.8,53.2,7.8z M53.2,14.9c0.4,0,0.8-0.1,1.2-0.2c0.4-0.2,0.7-0.4,1-0.6c0.3-0.3,0.5-0.6,0.6-0.9
			c0.2-0.4,0.2-0.7,0.2-1.2c0-0.4-0.1-0.8-0.2-1.2s-0.4-0.7-0.6-1c-0.3-0.3-0.6-0.5-1-0.6C54,9,53.6,9,53.2,9S52.4,9,52.1,9.2
			c-0.4,0.2-0.7,0.4-0.9,0.6c-0.3,0.3-0.5,0.6-0.6,1c-0.2,0.4-0.2,0.8-0.2,1.2c0,0.4,0.1,0.8,0.2,1.2c0.2,0.4,0.4,0.7,0.6,0.9
			c0.3,0.3,0.6,0.5,0.9,0.6C52.4,14.9,52.8,14.9,53.2,14.9z"/>
		<path d="M63.4,7.8c0.6,0,1.1,0.1,1.6,0.3C65.6,8.3,66,8.6,66.4,9c-0.1,0.1-0.3,0.3-0.4,0.5c-0.2,0.2-0.3,0.3-0.4,0.4
			c-0.3-0.3-0.6-0.5-1-0.6C64.2,9,63.8,9,63.4,9S62.6,9,62.3,9.2c-0.4,0.2-0.7,0.4-0.9,0.6c-0.3,0.3-0.5,0.6-0.6,0.9
			c-0.2,0.4-0.2,0.7-0.2,1.2v4.2h-1.2V7.8h1.2v1.5c0.3-0.4,0.8-0.8,1.3-1.1C62.3,7.9,62.8,7.8,63.4,7.8z"/>
		<path d="M70.7,11.8L69.5,13v3.1h-1.2V4h1.2v7.3L73,7.7h1.7l-3.2,3.2l3.8,5.2h-1.5L70.7,11.8z"/>
	</g>
</g>
<g id="Слой_2" class="st0">
	<g class="st1">
		<path class="st2" d="M11.3,5.2V15h-0.4L4.3,6v9H3.8V5.2h0.4l6.6,9v-9H11.3z"/>
		<path class="st2" d="M21.7,11.3h-7.1c0.1,1.9,1.5,3.4,3.3,3.4c1.3,0,2.4-0.7,3-1.9h0.5c-0.7,1.5-1.9,2.3-3.5,2.3
			c-2.2,0-3.8-1.7-3.8-3.9c0-2.2,1.6-3.9,3.8-3.9c2.2,0,3.7,1.7,3.7,3.9C21.7,11.2,21.7,11.3,21.7,11.3z M14.7,10.9h6.6
			C21.2,9,19.8,7.7,18,7.7C16.2,7.7,14.8,9.1,14.7,10.9z"/>
		<path class="st2" d="M28.2,14.6V15h-1c-1.4,0-2.3-0.9-2.3-2.3V7.8h-1.7V7.4H25V5.2h0.4v2.2h2.7v0.4h-2.7v4.8
			c0,1.2,0.7,1.9,1.9,1.9H28.2z"/>
		<path class="st2" d="M30.2,14.1h0.7V15h-0.7V14.1z"/>
		<path class="st2" d="M43.6,7.4L40.9,15h-0.3L38,8.5L35.4,15H35l-2.6-7.6h0.5l2.3,6.8l2.6-6.5H38l2.6,6.5l2.4-6.8H43.6z"/>
		<path class="st2" d="M45.4,11.2c0-2.3,1.7-3.9,3.9-3.9c2.3,0,3.9,1.7,3.9,3.9c0,2.2-1.7,3.9-3.9,3.9
			C47.1,15.1,45.4,13.5,45.4,11.2z M52.8,11.2c0-2-1.5-3.5-3.5-3.5c-2,0-3.5,1.5-3.5,3.5c0,2,1.5,3.5,3.5,3.5
			C51.4,14.7,52.8,13.2,52.8,11.2z"/>
		<path class="st2" d="M60,7.4v0.4h-0.7c-1.6,0-2.6,1.2-2.6,2.9V15h-0.4V7.4h0.4l0.1,1.7c0.5-1.1,1.4-1.7,2.7-1.7H60z"/>
		<path class="st2" d="M64.3,11.3h-1.4V15h-0.4V4.8h0.4v6.1h1.4l3-3.4h0.6L64.7,11l3.4,3.9h-0.6L64.3,11.3z"/>
	</g>
</g>
</svg>
